<?xml version="1.0"?>
<!-- Generated by SVGo and Plotinum VG -->
<svg width="590pt" height="295pt" viewBox="0 0 590 295"
	xmlns="http://www.w3.org/2000/svg"
	xmlns:xlink="http://www.w3.org/1999/xlink">
<g transform="scale(1, -1) translate(0, -295)">
<path d="M0,0L590,0L590,295L0,295Z" style="fill:#FFFFFF" />
<text x="318.58" y="-3.8613" transform="scale(1, -1)"
	style="font-family:Times;font-weight:normal;font-style:normal;font-size:12px">cpus</text>
<text x="81.666" y="-15.602" transform="scale(1, -1)"
	style="font-family:Times;font-weight:normal;font-style:normal;font-size:10px">1</text>
<text x="204.37" y="-15.602" transform="scale(1, -1)"
	style="font-family:Times;font-weight:normal;font-style:normal;font-size:10px">4</text>
<text x="327.08" y="-15.602" transform="scale(1, -1)"
	style="font-family:Times;font-weight:normal;font-style:normal;font-size:10px">8</text>
<text x="447.29" y="-15.602" transform="scale(1, -1)"
	style="font-family:Times;font-weight:normal;font-style:normal;font-size:10px">16</text>
<text x="570" y="-15.602" transform="scale(1, -1)"
	style="font-family:Times;font-weight:normal;font-style:normal;font-size:10px">32</text>
<g transform="rotate(90)">
<text x="149.61" y="11.555" transform="scale(1, -1)"
	style="font-family:Times;font-weight:normal;font-style:normal;font-size:12px">ns/op</text>
</g>
<text x="20.416" y="-25.509" transform="scale(1, -1)"
	style="font-family:Times;font-weight:normal;font-style:normal;font-size:10px">0</text>
<text x="15.416" y="-108.25" transform="scale(1, -1)"
	style="font-family:Times;font-weight:normal;font-style:normal;font-size:10px">10</text>
<text x="15.416" y="-190.99" transform="scale(1, -1)"
	style="font-family:Times;font-weight:normal;font-style:normal;font-size:10px">20</text>
<text x="15.416" y="-273.73" transform="scale(1, -1)"
	style="font-family:Times;font-weight:normal;font-style:normal;font-size:10px">30</text>
<path d="M27.916,30.23L35.916,30.23" style="fill:none;stroke:#000000;stroke-width:0.5" />
<path d="M27.916,112.97L35.916,112.97" style="fill:none;stroke:#000000;stroke-width:0.5" />
<path d="M27.916,195.71L35.916,195.71" style="fill:none;stroke:#000000;stroke-width:0.5" />
<path d="M27.916,278.45L35.916,278.45" style="fill:none;stroke:#000000;stroke-width:0.5" />
<path d="M31.916,46.779L35.916,46.779" style="fill:none;stroke:#000000;stroke-width:0.5" />
<path d="M31.916,63.327L35.916,63.327" style="fill:none;stroke:#000000;stroke-width:0.5" />
<path d="M31.916,79.875L35.916,79.875" style="fill:none;stroke:#000000;stroke-width:0.5" />
<path d="M31.916,96.423L35.916,96.423" style="fill:none;stroke:#000000;stroke-width:0.5" />
<path d="M31.916,129.52L35.916,129.52" style="fill:none;stroke:#000000;stroke-width:0.5" />
<path d="M31.916,146.07L35.916,146.07" style="fill:none;stroke:#000000;stroke-width:0.5" />
<path d="M31.916,162.62L35.916,162.62" style="fill:none;stroke:#000000;stroke-width:0.5" />
<path d="M31.916,179.16L35.916,179.16" style="fill:none;stroke:#000000;stroke-width:0.5" />
<path d="M31.916,212.26L35.916,212.26" style="fill:none;stroke:#000000;stroke-width:0.5" />
<path d="M31.916,228.81L35.916,228.81" style="fill:none;stroke:#000000;stroke-width:0.5" />
<path d="M31.916,245.36L35.916,245.36" style="fill:none;stroke:#000000;stroke-width:0.5" />
<path d="M31.916,261.9L35.916,261.9" style="fill:none;stroke:#000000;stroke-width:0.5" />
<path d="M31.916,295L35.916,295" style="fill:none;stroke:#000000;stroke-width:0.5" />
<path d="M35.916,30.23L35.916,295" style="fill:none;stroke:#000000;stroke-width:0.5" />
<path d="M39.166,30.23L39.166,295L69.166,295L69.166,30.23Z" style="fill:#F15A60" />
<path d="M161.87,30.23L161.87,107.84L191.87,107.84L191.87,30.23Z" style="fill:#F15A60" />
<path d="M284.58,30.23L284.58,69.913L314.58,69.913L314.58,30.23Z" style="fill:#F15A60" />
<path d="M407.29,30.23L407.29,81.687L437.29,81.687L437.29,30.23Z" style="fill:#F15A60" />
<path d="M530,30.23L530,97.49L560,97.49L560,30.23Z" style="fill:#F15A60" />
<path d="M69.166,30.23L69.166,165.76L99.166,165.76L99.166,30.23Z" style="fill:#7AC36A" />
<path d="M191.87,30.23L191.87,243.78L221.87,243.78L221.87,30.23Z" style="fill:#7AC36A" />
<path d="M314.58,30.23L314.58,246.85L344.58,246.85L344.58,30.23Z" style="fill:#7AC36A" />
<path d="M437.29,30.23L437.29,245.11L467.29,245.11L467.29,30.23Z" style="fill:#7AC36A" />
<path d="M560,30.23L560,211.27L590,211.27L590,30.23Z" style="fill:#7AC36A" />
<path d="M570,283.22L570,295L590,295L590,283.22Z" style="fill:#F15A60" />
<text x="458.27" y="-283.45" transform="scale(1, -1)"
	style="font-family:Times;font-weight:normal;font-style:normal;font-size:12px">[BenchmarkCounter=]</text>
<path d="M570,271.45L570,283.22L590,283.22L590,271.45Z" style="fill:#7AC36A" />
<text x="435.6" y="-271.67" transform="scale(1, -1)"
	style="font-family:Times;font-weight:normal;font-style:normal;font-size:12px">[BenchmarkAtomicInt64=]</text>
</g>
</svg>
