<?xml version="1.0"?>
<!-- Generated by SVGo and Plotinum VG -->
<svg width="590pt" height="295pt" viewBox="0 0 590 295"
	xmlns="http://www.w3.org/2000/svg"
	xmlns:xlink="http://www.w3.org/1999/xlink">
<g transform="scale(1, -1) translate(0, -295)">
<path d="M0,0L590,0L590,295L0,295Z" style="fill:#FFFFFF" />
<text x="246.31" y="-283.45" transform="scale(1, -1)"
	style="font-family:Times;font-weight:normal;font-style:normal;font-size:12px">read_percentage=90</text>
<text x="323.58" y="-3.8613" transform="scale(1, -1)"
	style="font-family:Times;font-weight:normal;font-style:normal;font-size:12px">cpus</text>
<text x="91.666" y="-15.602" transform="scale(1, -1)"
	style="font-family:Times;font-weight:normal;font-style:normal;font-size:10px">1</text>
<text x="211.87" y="-15.602" transform="scale(1, -1)"
	style="font-family:Times;font-weight:normal;font-style:normal;font-size:10px">4</text>
<text x="332.08" y="-15.602" transform="scale(1, -1)"
	style="font-family:Times;font-weight:normal;font-style:normal;font-size:10px">8</text>
<text x="449.79" y="-15.602" transform="scale(1, -1)"
	style="font-family:Times;font-weight:normal;font-style:normal;font-size:10px">16</text>
<text x="570" y="-15.602" transform="scale(1, -1)"
	style="font-family:Times;font-weight:normal;font-style:normal;font-size:10px">32</text>
<g transform="rotate(90)">
<text x="141.91" y="11.555" transform="scale(1, -1)"
	style="font-family:Times;font-weight:normal;font-style:normal;font-size:12px">ns/op</text>
</g>
<text x="30.416" y="-25.509" transform="scale(1, -1)"
	style="font-family:Times;font-weight:normal;font-style:normal;font-size:10px">0</text>
<text x="20.416" y="-95.799" transform="scale(1, -1)"
	style="font-family:Times;font-weight:normal;font-style:normal;font-size:10px">400</text>
<text x="20.416" y="-166.09" transform="scale(1, -1)"
	style="font-family:Times;font-weight:normal;font-style:normal;font-size:10px">800</text>
<text x="15.416" y="-236.38" transform="scale(1, -1)"
	style="font-family:Times;font-weight:normal;font-style:normal;font-size:10px">1200</text>
<path d="M37.916,30.23L45.916,30.23" style="fill:none;stroke:#000000;stroke-width:0.5" />
<path d="M37.916,100.52L45.916,100.52" style="fill:none;stroke:#000000;stroke-width:0.5" />
<path d="M37.916,170.81L45.916,170.81" style="fill:none;stroke:#000000;stroke-width:0.5" />
<path d="M37.916,241.1L45.916,241.1" style="fill:none;stroke:#000000;stroke-width:0.5" />
<path d="M41.916,47.803L45.916,47.803" style="fill:none;stroke:#000000;stroke-width:0.5" />
<path d="M41.916,65.375L45.916,65.375" style="fill:none;stroke:#000000;stroke-width:0.5" />
<path d="M41.916,82.948L45.916,82.948" style="fill:none;stroke:#000000;stroke-width:0.5" />
<path d="M41.916,118.09L45.916,118.09" style="fill:none;stroke:#000000;stroke-width:0.5" />
<path d="M41.916,135.67L45.916,135.67" style="fill:none;stroke:#000000;stroke-width:0.5" />
<path d="M41.916,153.24L45.916,153.24" style="fill:none;stroke:#000000;stroke-width:0.5" />
<path d="M41.916,188.38L45.916,188.38" style="fill:none;stroke:#000000;stroke-width:0.5" />
<path d="M41.916,205.96L45.916,205.96" style="fill:none;stroke:#000000;stroke-width:0.5" />
<path d="M41.916,223.53L45.916,223.53" style="fill:none;stroke:#000000;stroke-width:0.5" />
<path d="M41.916,258.67L45.916,258.67" style="fill:none;stroke:#000000;stroke-width:0.5" />
<path d="M41.916,276.25L45.916,276.25" style="fill:none;stroke:#000000;stroke-width:0.5" />
<path d="M45.916,30.23L45.916,279.58" style="fill:none;stroke:#000000;stroke-width:0.5" />
<path d="M49.166,30.23L49.166,155.49L79.166,155.49L79.166,30.23Z" style="fill:#F15A60" />
<path d="M169.37,30.23L169.37,68.538L199.37,68.538L199.37,30.23Z" style="fill:#F15A60" />
<path d="M289.58,30.23L289.58,48.453L319.58,48.453L319.58,30.23Z" style="fill:#F15A60" />
<path d="M409.79,30.23L409.79,40.4L439.79,40.4L439.79,30.23Z" style="fill:#F15A60" />
<path d="M530,30.23L530,37.223L560,37.223L560,30.23Z" style="fill:#F15A60" />
<path d="M79.166,30.23L79.166,279.58L109.17,279.58L109.17,30.23Z" style="fill:#7AC36A" />
<path d="M199.37,30.23L199.37,207.54L229.37,207.54L229.37,30.23Z" style="fill:#7AC36A" />
<path d="M319.58,30.23L319.58,220.72L349.58,220.72L349.58,30.23Z" style="fill:#7AC36A" />
<path d="M439.79,30.23L439.79,209.82L469.79,209.82L469.79,30.23Z" style="fill:#7AC36A" />
<path d="M560,30.23L560,236.53L590,236.53L590,30.23Z" style="fill:#7AC36A" />
<path d="M570,267.81L570,279.58L590,279.58L590,267.81Z" style="fill:#F15A60" />
<text x="425.24" y="-268.03" transform="scale(1, -1)"
	style="font-family:Times;font-weight:normal;font-style:normal;font-size:12px">[BenchmarkMap_WarmUp=]</text>
<path d="M570,256.03L570,267.81L590,267.81L590,256.03Z" style="fill:#7AC36A" />
<text x="382.59" y="-256.25" transform="scale(1, -1)"
	style="font-family:Times;font-weight:normal;font-style:normal;font-size:12px">[BenchmarkMapStandard_WarmUp=]</text>
</g>
</svg>
