<?xml version="1.0"?>
<!-- Generated by SVGo and Plotinum VG -->
<svg width="590pt" height="295pt" viewBox="0 0 590 295"
	xmlns="http://www.w3.org/2000/svg"
	xmlns:xlink="http://www.w3.org/1999/xlink">
<g transform="scale(1, -1) translate(0, -295)">
<path d="M0,0L590,0L590,295L0,295Z" style="fill:#FFFFFF" />
<text x="246.31" y="-283.45" transform="scale(1, -1)"
	style="font-family:Times;font-weight:normal;font-style:normal;font-size:12px">read_percentage=99</text>
<text x="323.58" y="-3.8613" transform="scale(1, -1)"
	style="font-family:Times;font-weight:normal;font-style:normal;font-size:12px">cpus</text>
<text x="91.666" y="-15.602" transform="scale(1, -1)"
	style="font-family:Times;font-weight:normal;font-style:normal;font-size:10px">1</text>
<text x="211.87" y="-15.602" transform="scale(1, -1)"
	style="font-family:Times;font-weight:normal;font-style:normal;font-size:10px">4</text>
<text x="332.08" y="-15.602" transform="scale(1, -1)"
	style="font-family:Times;font-weight:normal;font-style:normal;font-size:10px">8</text>
<text x="449.79" y="-15.602" transform="scale(1, -1)"
	style="font-family:Times;font-weight:normal;font-style:normal;font-size:10px">16</text>
<text x="570" y="-15.602" transform="scale(1, -1)"
	style="font-family:Times;font-weight:normal;font-style:normal;font-size:10px">32</text>
<g transform="rotate(90)">
<text x="141.91" y="11.555" transform="scale(1, -1)"
	style="font-family:Times;font-weight:normal;font-style:normal;font-size:12px">ns/op</text>
</g>
<text x="30.416" y="-25.509" transform="scale(1, -1)"
	style="font-family:Times;font-weight:normal;font-style:normal;font-size:10px">0</text>
<text x="20.416" y="-101.65" transform="scale(1, -1)"
	style="font-family:Times;font-weight:normal;font-style:normal;font-size:10px">400</text>
<text x="20.416" y="-177.79" transform="scale(1, -1)"
	style="font-family:Times;font-weight:normal;font-style:normal;font-size:10px">800</text>
<text x="15.416" y="-253.92" transform="scale(1, -1)"
	style="font-family:Times;font-weight:normal;font-style:normal;font-size:10px">1200</text>
<path d="M37.916,30.23L45.916,30.23" style="fill:none;stroke:#000000;stroke-width:0.5" />
<path d="M37.916,106.37L45.916,106.37" style="fill:none;stroke:#000000;stroke-width:0.5" />
<path d="M37.916,182.51L45.916,182.51" style="fill:none;stroke:#000000;stroke-width:0.5" />
<path d="M37.916,258.65L45.916,258.65" style="fill:none;stroke:#000000;stroke-width:0.5" />
<path d="M41.916,49.265L45.916,49.265" style="fill:none;stroke:#000000;stroke-width:0.5" />
<path d="M41.916,68.3L45.916,68.3" style="fill:none;stroke:#000000;stroke-width:0.5" />
<path d="M41.916,87.334L45.916,87.334" style="fill:none;stroke:#000000;stroke-width:0.5" />
<path d="M41.916,125.4L45.916,125.4" style="fill:none;stroke:#000000;stroke-width:0.5" />
<path d="M41.916,144.44L45.916,144.44" style="fill:none;stroke:#000000;stroke-width:0.5" />
<path d="M41.916,163.47L45.916,163.47" style="fill:none;stroke:#000000;stroke-width:0.5" />
<path d="M41.916,201.54L45.916,201.54" style="fill:none;stroke:#000000;stroke-width:0.5" />
<path d="M41.916,220.58L45.916,220.58" style="fill:none;stroke:#000000;stroke-width:0.5" />
<path d="M41.916,239.61L45.916,239.61" style="fill:none;stroke:#000000;stroke-width:0.5" />
<path d="M41.916,277.68L45.916,277.68" style="fill:none;stroke:#000000;stroke-width:0.5" />
<path d="M45.916,30.23L45.916,279.58" style="fill:none;stroke:#000000;stroke-width:0.5" />
<path d="M49.166,30.23L49.166,185.42L79.166,185.42L79.166,30.23Z" style="fill:#F15A60" />
<path d="M169.37,30.23L169.37,71.593L199.37,71.593L199.37,30.23Z" style="fill:#F15A60" />
<path d="M289.58,30.23L289.58,50.293L319.58,50.293L319.58,30.23Z" style="fill:#F15A60" />
<path d="M409.79,30.23L409.79,42.416L439.79,42.416L439.79,30.23Z" style="fill:#F15A60" />
<path d="M530,30.23L530,38.665L560,38.665L560,30.23Z" style="fill:#F15A60" />
<path d="M79.166,30.23L79.166,279.58L109.17,279.58L109.17,30.23Z" style="fill:#7AC36A" />
<path d="M199.37,30.23L199.37,244.56L229.37,244.56L229.37,30.23Z" style="fill:#7AC36A" />
<path d="M319.58,30.23L319.58,236.95L349.58,236.95L349.58,30.23Z" style="fill:#7AC36A" />
<path d="M439.79,30.23L439.79,221.72L469.79,221.72L469.79,30.23Z" style="fill:#7AC36A" />
<path d="M560,30.23L560,247.61L590,247.61L590,30.23Z" style="fill:#7AC36A" />
<path d="M570,267.81L570,279.58L590,279.58L590,267.81Z" style="fill:#F15A60" />
<text x="425.24" y="-268.03" transform="scale(1, -1)"
	style="font-family:Times;font-weight:normal;font-style:normal;font-size:12px">[BenchmarkMap_WarmUp=]</text>
<path d="M570,256.03L570,267.81L590,267.81L590,256.03Z" style="fill:#7AC36A" />
<text x="382.59" y="-256.25" transform="scale(1, -1)"
	style="font-family:Times;font-weight:normal;font-style:normal;font-size:12px">[BenchmarkMapStandard_WarmUp=]</text>
</g>
</svg>
