<?xml version="1.0"?>
<!-- Generated by SVGo and Plotinum VG -->
<svg width="590pt" height="295pt" viewBox="0 0 590 295"
	xmlns="http://www.w3.org/2000/svg"
	xmlns:xlink="http://www.w3.org/1999/xlink">
<g transform="scale(1, -1) translate(0, -295)">
<path d="M0,0L590,0L590,295L0,295Z" style="fill:#FFFFFF" />
<text x="246.31" y="-283.45" transform="scale(1, -1)"
	style="font-family:Times;font-weight:normal;font-style:normal;font-size:12px">read_percentage=75</text>
<text x="323.58" y="-3.8613" transform="scale(1, -1)"
	style="font-family:Times;font-weight:normal;font-style:normal;font-size:12px">cpus</text>
<text x="91.666" y="-15.602" transform="scale(1, -1)"
	style="font-family:Times;font-weight:normal;font-style:normal;font-size:10px">1</text>
<text x="211.87" y="-15.602" transform="scale(1, -1)"
	style="font-family:Times;font-weight:normal;font-style:normal;font-size:10px">4</text>
<text x="332.08" y="-15.602" transform="scale(1, -1)"
	style="font-family:Times;font-weight:normal;font-style:normal;font-size:10px">8</text>
<text x="449.79" y="-15.602" transform="scale(1, -1)"
	style="font-family:Times;font-weight:normal;font-style:normal;font-size:10px">16</text>
<text x="570" y="-15.602" transform="scale(1, -1)"
	style="font-family:Times;font-weight:normal;font-style:normal;font-size:10px">32</text>
<g transform="rotate(90)">
<text x="141.91" y="11.555" transform="scale(1, -1)"
	style="font-family:Times;font-weight:normal;font-style:normal;font-size:12px">ns/op</text>
</g>
<text x="30.416" y="-25.509" transform="scale(1, -1)"
	style="font-family:Times;font-weight:normal;font-style:normal;font-size:10px">0</text>
<text x="20.416" y="-126.87" transform="scale(1, -1)"
	style="font-family:Times;font-weight:normal;font-style:normal;font-size:10px">600</text>
<text x="15.416" y="-228.24" transform="scale(1, -1)"
	style="font-family:Times;font-weight:normal;font-style:normal;font-size:10px">1200</text>
<path d="M37.916,30.23L45.916,30.23" style="fill:none;stroke:#000000;stroke-width:0.5" />
<path d="M37.916,131.59L45.916,131.59" style="fill:none;stroke:#000000;stroke-width:0.5" />
<path d="M37.916,232.96L45.916,232.96" style="fill:none;stroke:#000000;stroke-width:0.5" />
<path d="M41.916,80.912L45.916,80.912" style="fill:none;stroke:#000000;stroke-width:0.5" />
<path d="M41.916,182.28L45.916,182.28" style="fill:none;stroke:#000000;stroke-width:0.5" />
<path d="M45.916,30.23L45.916,279.58" style="fill:none;stroke:#000000;stroke-width:0.5" />
<path d="M49.166,30.23L49.166,154.82L79.166,154.82L79.166,30.23Z" style="fill:#F15A60" />
<path d="M169.37,30.23L169.37,66.485L199.37,66.485L199.37,30.23Z" style="fill:#F15A60" />
<path d="M289.58,30.23L289.58,48.577L319.58,48.577L319.58,30.23Z" style="fill:#F15A60" />
<path d="M409.79,30.23L409.79,40.188L439.79,40.188L439.79,30.23Z" style="fill:#F15A60" />
<path d="M530,30.23L530,37.287L560,37.287L560,30.23Z" style="fill:#F15A60" />
<path d="M79.166,30.23L79.166,279.58L109.17,279.58L109.17,30.23Z" style="fill:#7AC36A" />
<path d="M199.37,30.23L199.37,209.64L229.37,209.64L229.37,30.23Z" style="fill:#7AC36A" />
<path d="M319.58,30.23L319.58,216.06L349.58,216.06L349.58,30.23Z" style="fill:#7AC36A" />
<path d="M439.79,30.23L439.79,209.64L469.79,209.64L469.79,30.23Z" style="fill:#7AC36A" />
<path d="M560,30.23L560,238.19L590,238.19L590,30.23Z" style="fill:#7AC36A" />
<path d="M570,267.81L570,279.58L590,279.58L590,267.81Z" style="fill:#F15A60" />
<text x="425.24" y="-268.03" transform="scale(1, -1)"
	style="font-family:Times;font-weight:normal;font-style:normal;font-size:12px">[BenchmarkMap_WarmUp=]</text>
<path d="M570,256.03L570,267.81L590,267.81L590,256.03Z" style="fill:#7AC36A" />
<text x="382.59" y="-256.25" transform="scale(1, -1)"
	style="font-family:Times;font-weight:normal;font-style:normal;font-size:12px">[BenchmarkMapStandard_WarmUp=]</text>
</g>
</svg>
