<?xml version="1.0"?>
<!-- Generated by SVGo and Plotinum VG -->
<svg width="590pt" height="295pt" viewBox="0 0 590 295"
	xmlns="http://www.w3.org/2000/svg"
	xmlns:xlink="http://www.w3.org/1999/xlink">
<g transform="scale(1, -1) translate(0, -295)">
<path d="M0,0L590,0L590,295L0,295Z" style="fill:#FFFFFF" />
<text x="273.29" y="-283.45" transform="scale(1, -1)"
	style="font-family:Times;font-weight:normal;font-style:normal;font-size:12px">work=on</text>
<text x="327.33" y="-3.8613" transform="scale(1, -1)"
	style="font-family:Times;font-weight:normal;font-style:normal;font-size:12px">cpus</text>
<text x="99.166" y="-15.602" transform="scale(1, -1)"
	style="font-family:Times;font-weight:normal;font-style:normal;font-size:10px">1</text>
<text x="217.5" y="-15.602" transform="scale(1, -1)"
	style="font-family:Times;font-weight:normal;font-style:normal;font-size:10px">4</text>
<text x="335.83" y="-15.602" transform="scale(1, -1)"
	style="font-family:Times;font-weight:normal;font-style:normal;font-size:10px">8</text>
<text x="451.67" y="-15.602" transform="scale(1, -1)"
	style="font-family:Times;font-weight:normal;font-style:normal;font-size:10px">16</text>
<text x="570" y="-15.602" transform="scale(1, -1)"
	style="font-family:Times;font-weight:normal;font-style:normal;font-size:10px">32</text>
<g transform="rotate(90)">
<text x="141.91" y="11.555" transform="scale(1, -1)"
	style="font-family:Times;font-weight:normal;font-style:normal;font-size:12px">ns/op</text>
</g>
<text x="25.416" y="-25.509" transform="scale(1, -1)"
	style="font-family:Times;font-weight:normal;font-style:normal;font-size:10px">0.00</text>
<text x="15.416" y="-104.27" transform="scale(1, -1)"
	style="font-family:Times;font-weight:normal;font-style:normal;font-size:10px">250.00</text>
<text x="15.416" y="-183.03" transform="scale(1, -1)"
	style="font-family:Times;font-weight:normal;font-style:normal;font-size:10px">500.00</text>
<text x="15.416" y="-261.79" transform="scale(1, -1)"
	style="font-family:Times;font-weight:normal;font-style:normal;font-size:10px">750.00</text>
<path d="M45.416,30.23L53.416,30.23" style="fill:none;stroke:#000000;stroke-width:0.5" />
<path d="M45.416,108.99L53.416,108.99" style="fill:none;stroke:#000000;stroke-width:0.5" />
<path d="M45.416,187.75L53.416,187.75" style="fill:none;stroke:#000000;stroke-width:0.5" />
<path d="M45.416,266.51L53.416,266.51" style="fill:none;stroke:#000000;stroke-width:0.5" />
<path d="M49.416,45.982L53.416,45.982" style="fill:none;stroke:#000000;stroke-width:0.5" />
<path d="M49.416,61.734L53.416,61.734" style="fill:none;stroke:#000000;stroke-width:0.5" />
<path d="M49.416,77.486L53.416,77.486" style="fill:none;stroke:#000000;stroke-width:0.5" />
<path d="M49.416,93.238L53.416,93.238" style="fill:none;stroke:#000000;stroke-width:0.5" />
<path d="M49.416,124.74L53.416,124.74" style="fill:none;stroke:#000000;stroke-width:0.5" />
<path d="M49.416,140.49L53.416,140.49" style="fill:none;stroke:#000000;stroke-width:0.5" />
<path d="M49.416,156.25L53.416,156.25" style="fill:none;stroke:#000000;stroke-width:0.5" />
<path d="M49.416,172L53.416,172" style="fill:none;stroke:#000000;stroke-width:0.5" />
<path d="M49.416,203.5L53.416,203.5" style="fill:none;stroke:#000000;stroke-width:0.5" />
<path d="M49.416,219.25L53.416,219.25" style="fill:none;stroke:#000000;stroke-width:0.5" />
<path d="M49.416,235.01L53.416,235.01" style="fill:none;stroke:#000000;stroke-width:0.5" />
<path d="M49.416,250.76L53.416,250.76" style="fill:none;stroke:#000000;stroke-width:0.5" />
<path d="M53.416,30.23L53.416,279.58" style="fill:none;stroke:#000000;stroke-width:0.5" />
<path d="M56.666,30.23L56.666,128.52L86.666,128.52L86.666,30.23Z" style="fill:#F15A60" />
<path d="M175,30.23L175,80.353L205,80.353L205,30.23Z" style="fill:#F15A60" />
<path d="M293.33,30.23L293.33,66.46L323.33,66.46L323.33,30.23Z" style="fill:#F15A60" />
<path d="M411.67,30.23L411.67,62.616L441.67,62.616L441.67,30.23Z" style="fill:#F15A60" />
<path d="M530,30.23L530,59.948L560,59.948L560,30.23Z" style="fill:#F15A60" />
<path d="M86.666,30.23L86.666,135.33L116.67,135.33L116.67,30.23Z" style="fill:#7AC36A" />
<path d="M205,30.23L205,149.47L235,149.47L235,30.23Z" style="fill:#7AC36A" />
<path d="M323.33,30.23L323.33,187.06L353.33,187.06L353.33,30.23Z" style="fill:#7AC36A" />
<path d="M441.67,30.23L441.67,239.2L471.67,239.2L471.67,30.23Z" style="fill:#7AC36A" />
<path d="M560,30.23L560,279.58L590,279.58L590,30.23Z" style="fill:#7AC36A" />
<path d="M570,267.81L570,279.58L590,279.58L590,267.81Z" style="fill:#F15A60" />
<text x="429.59" y="-268.03" transform="scale(1, -1)"
	style="font-family:Times;font-weight:normal;font-style:normal;font-size:12px">[BenchmarkMPMCQueue=]</text>
<path d="M570,256.03L570,267.81L590,267.81L590,256.03Z" style="fill:#7AC36A" />
<text x="471.6" y="-256.25" transform="scale(1, -1)"
	style="font-family:Times;font-weight:normal;font-style:normal;font-size:12px">[BenchmarkChan=]</text>
</g>
</svg>
