<?xml version="1.0"?>
<!-- Generated by SVGo and Plotinum VG -->
<svg width="590pt" height="295pt" viewBox="0 0 590 295"
	xmlns="http://www.w3.org/2000/svg"
	xmlns:xlink="http://www.w3.org/1999/xlink">
<g transform="scale(1, -1) translate(0, -295)">
<path d="M0,0L590,0L590,295L0,295Z" style="fill:#FFFFFF" />
<text x="272.4" y="-283.45" transform="scale(1, -1)"
	style="font-family:Times;font-weight:normal;font-style:normal;font-size:12px">work=off</text>
<text x="327.33" y="-3.8613" transform="scale(1, -1)"
	style="font-family:Times;font-weight:normal;font-style:normal;font-size:12px">cpus</text>
<text x="99.166" y="-15.602" transform="scale(1, -1)"
	style="font-family:Times;font-weight:normal;font-style:normal;font-size:10px">1</text>
<text x="217.5" y="-15.602" transform="scale(1, -1)"
	style="font-family:Times;font-weight:normal;font-style:normal;font-size:10px">4</text>
<text x="335.83" y="-15.602" transform="scale(1, -1)"
	style="font-family:Times;font-weight:normal;font-style:normal;font-size:10px">8</text>
<text x="451.67" y="-15.602" transform="scale(1, -1)"
	style="font-family:Times;font-weight:normal;font-style:normal;font-size:10px">16</text>
<text x="570" y="-15.602" transform="scale(1, -1)"
	style="font-family:Times;font-weight:normal;font-style:normal;font-size:10px">32</text>
<g transform="rotate(90)">
<text x="141.41" y="11.555" transform="scale(1, -1)"
	style="font-family:Times;font-weight:normal;font-style:normal;font-size:12px">ns/op</text>
</g>
<text x="25.416" y="-25.509" transform="scale(1, -1)"
	style="font-family:Times;font-weight:normal;font-style:normal;font-size:10px">0.00</text>
<text x="15.416" y="-147.73" transform="scale(1, -1)"
	style="font-family:Times;font-weight:normal;font-style:normal;font-size:10px">250.00</text>
<text x="15.416" y="-269.96" transform="scale(1, -1)"
	style="font-family:Times;font-weight:normal;font-style:normal;font-size:10px">500.00</text>
<path d="M45.416,30.23L53.416,30.23" style="fill:none;stroke:#000000;stroke-width:0.5" />
<path d="M45.416,152.45L53.416,152.45" style="fill:none;stroke:#000000;stroke-width:0.5" />
<path d="M45.416,274.68L53.416,274.68" style="fill:none;stroke:#000000;stroke-width:0.5" />
<path d="M49.416,54.675L53.416,54.675" style="fill:none;stroke:#000000;stroke-width:0.5" />
<path d="M49.416,79.12L53.416,79.12" style="fill:none;stroke:#000000;stroke-width:0.5" />
<path d="M49.416,103.56L53.416,103.56" style="fill:none;stroke:#000000;stroke-width:0.5" />
<path d="M49.416,128.01L53.416,128.01" style="fill:none;stroke:#000000;stroke-width:0.5" />
<path d="M49.416,176.9L53.416,176.9" style="fill:none;stroke:#000000;stroke-width:0.5" />
<path d="M49.416,201.34L53.416,201.34" style="fill:none;stroke:#000000;stroke-width:0.5" />
<path d="M49.416,225.79L53.416,225.79" style="fill:none;stroke:#000000;stroke-width:0.5" />
<path d="M49.416,250.23L53.416,250.23" style="fill:none;stroke:#000000;stroke-width:0.5" />
<path d="M53.416,30.23L53.416,278.59" style="fill:none;stroke:#000000;stroke-width:0.5" />
<path d="M56.666,30.23L56.666,62.302L86.666,62.302L86.666,30.23Z" style="fill:#F15A60" />
<path d="M175,30.23L175,113.15L205,113.15L205,30.23Z" style="fill:#F15A60" />
<path d="M293.33,30.23L293.33,107.23L323.33,107.23L323.33,30.23Z" style="fill:#F15A60" />
<path d="M411.67,30.23L411.67,98.724L441.67,98.724L441.67,30.23Z" style="fill:#F15A60" />
<path d="M530,30.23L530,79.012L560,79.012L560,30.23Z" style="fill:#F15A60" />
<path d="M86.666,30.23L86.666,62.937L116.67,62.937L116.67,30.23Z" style="fill:#7AC36A" />
<path d="M205,30.23L205,75.917L235,75.917L235,30.23Z" style="fill:#7AC36A" />
<path d="M323.33,30.23L323.33,105.52L353.33,105.52L353.33,30.23Z" style="fill:#7AC36A" />
<path d="M441.67,30.23L441.67,190.15L471.67,190.15L471.67,30.23Z" style="fill:#7AC36A" />
<path d="M560,30.23L560,278.59L590,278.59L590,30.23Z" style="fill:#7AC36A" />
<path d="M570,267.81L570,279.58L590,279.58L590,267.81Z" style="fill:#F15A60" />
<text x="429.59" y="-268.03" transform="scale(1, -1)"
	style="font-family:Times;font-weight:normal;font-style:normal;font-size:12px">[BenchmarkMPMCQueue=]</text>
<path d="M570,256.03L570,267.81L590,267.81L590,256.03Z" style="fill:#7AC36A" />
<text x="471.6" y="-256.25" transform="scale(1, -1)"
	style="font-family:Times;font-weight:normal;font-style:normal;font-size:12px">[BenchmarkChan=]</text>
</g>
</svg>
