<?xml version="1.0"?>
<!-- Generated by SVGo and Plotinum VG -->
<svg width="590pt" height="295pt" viewBox="0 0 590 295"
	xmlns="http://www.w3.org/2000/svg"
	xmlns:xlink="http://www.w3.org/1999/xlink">
<g transform="scale(1, -1) translate(0, -295)">
<path d="M0,0L590,0L590,295L0,295Z" style="fill:#FFFFFF" />
<text x="234.92" y="-283.45" transform="scale(1, -1)"
	style="font-family:Times;font-weight:normal;font-style:normal;font-size:12px">type=read-only/work=on</text>
<text x="321.08" y="-3.8613" transform="scale(1, -1)"
	style="font-family:Times;font-weight:normal;font-style:normal;font-size:12px">cpus</text>
<text x="86.666" y="-15.602" transform="scale(1, -1)"
	style="font-family:Times;font-weight:normal;font-style:normal;font-size:10px">1</text>
<text x="208.12" y="-15.602" transform="scale(1, -1)"
	style="font-family:Times;font-weight:normal;font-style:normal;font-size:10px">4</text>
<text x="329.58" y="-15.602" transform="scale(1, -1)"
	style="font-family:Times;font-weight:normal;font-style:normal;font-size:10px">8</text>
<text x="448.54" y="-15.602" transform="scale(1, -1)"
	style="font-family:Times;font-weight:normal;font-style:normal;font-size:10px">16</text>
<text x="570" y="-15.602" transform="scale(1, -1)"
	style="font-family:Times;font-weight:normal;font-style:normal;font-size:10px">32</text>
<g transform="rotate(90)">
<text x="141.91" y="11.555" transform="scale(1, -1)"
	style="font-family:Times;font-weight:normal;font-style:normal;font-size:12px">ns/op</text>
</g>
<text x="25.416" y="-25.509" transform="scale(1, -1)"
	style="font-family:Times;font-weight:normal;font-style:normal;font-size:10px">0</text>
<text x="20.416" y="-138.53" transform="scale(1, -1)"
	style="font-family:Times;font-weight:normal;font-style:normal;font-size:10px">80</text>
<text x="15.416" y="-251.55" transform="scale(1, -1)"
	style="font-family:Times;font-weight:normal;font-style:normal;font-size:10px">160</text>
<path d="M32.916,30.23L40.916,30.23" style="fill:none;stroke:#000000;stroke-width:0.5" />
<path d="M32.916,143.25L40.916,143.25" style="fill:none;stroke:#000000;stroke-width:0.5" />
<path d="M32.916,256.27L40.916,256.27" style="fill:none;stroke:#000000;stroke-width:0.5" />
<path d="M36.916,86.741L40.916,86.741" style="fill:none;stroke:#000000;stroke-width:0.5" />
<path d="M36.916,199.76L40.916,199.76" style="fill:none;stroke:#000000;stroke-width:0.5" />
<path d="M40.916,30.23L40.916,279.58" style="fill:none;stroke:#000000;stroke-width:0.5" />
<path d="M44.166,30.23L44.166,279.58L74.166,279.58L74.166,30.23Z" style="fill:#F15A60" />
<path d="M165.62,30.23L165.62,99.894L195.62,99.894L195.62,30.23Z" style="fill:#F15A60" />
<path d="M287.08,30.23L287.08,67.485L317.08,67.485L317.08,30.23Z" style="fill:#F15A60" />
<path d="M408.54,30.23L408.54,57.44L438.54,57.44L438.54,30.23Z" style="fill:#F15A60" />
<path d="M530,30.23L530,45.093L560,45.093L560,30.23Z" style="fill:#F15A60" />
<path d="M74.166,30.23L74.166,243.42L104.17,243.42L104.17,30.23Z" style="fill:#7AC36A" />
<path d="M195.62,30.23L195.62,123.25L225.62,123.25L225.62,30.23Z" style="fill:#7AC36A" />
<path d="M317.08,30.23L317.08,132.66L347.08,132.66L347.08,30.23Z" style="fill:#7AC36A" />
<path d="M438.54,30.23L438.54,161.19L468.54,161.19L468.54,30.23Z" style="fill:#7AC36A" />
<path d="M560,30.23L560,114.35L590,114.35L590,30.23Z" style="fill:#7AC36A" />
<path d="M570,267.81L570,279.58L590,279.58L590,267.81Z" style="fill:#F15A60" />
<text x="449.59" y="-268.03" transform="scale(1, -1)"
	style="font-family:Times;font-weight:normal;font-style:normal;font-size:12px">[BenchmarkRBMutex=]</text>
<path d="M570,256.03L570,267.81L590,267.81L590,256.03Z" style="fill:#7AC36A" />
<text x="446.93" y="-256.25" transform="scale(1, -1)"
	style="font-family:Times;font-weight:normal;font-style:normal;font-size:12px">[BenchmarkRWMutex=]</text>
</g>
</svg>
