<?xml version="1.0"?>
<!-- Generated by SVGo and Plotinum VG -->
<svg width="590pt" height="295pt" viewBox="0 0 590 295"
	xmlns="http://www.w3.org/2000/svg"
	xmlns:xlink="http://www.w3.org/1999/xlink">
<g transform="scale(1, -1) translate(0, -295)">
<path d="M0,0L590,0L590,295L0,295Z" style="fill:#FFFFFF" />
<text x="234.03" y="-283.45" transform="scale(1, -1)"
	style="font-family:Times;font-weight:normal;font-style:normal;font-size:12px">type=read-only/work=off</text>
<text x="318.58" y="-3.8613" transform="scale(1, -1)"
	style="font-family:Times;font-weight:normal;font-style:normal;font-size:12px">cpus</text>
<text x="81.666" y="-15.602" transform="scale(1, -1)"
	style="font-family:Times;font-weight:normal;font-style:normal;font-size:10px">1</text>
<text x="204.37" y="-15.602" transform="scale(1, -1)"
	style="font-family:Times;font-weight:normal;font-style:normal;font-size:10px">4</text>
<text x="327.08" y="-15.602" transform="scale(1, -1)"
	style="font-family:Times;font-weight:normal;font-style:normal;font-size:10px">8</text>
<text x="447.29" y="-15.602" transform="scale(1, -1)"
	style="font-family:Times;font-weight:normal;font-style:normal;font-size:10px">16</text>
<text x="570" y="-15.602" transform="scale(1, -1)"
	style="font-family:Times;font-weight:normal;font-style:normal;font-size:10px">32</text>
<g transform="rotate(90)">
<text x="141.91" y="11.555" transform="scale(1, -1)"
	style="font-family:Times;font-weight:normal;font-style:normal;font-size:12px">ns/op</text>
</g>
<text x="20.416" y="-25.509" transform="scale(1, -1)"
	style="font-family:Times;font-weight:normal;font-style:normal;font-size:10px">0</text>
<text x="15.416" y="-130.06" transform="scale(1, -1)"
	style="font-family:Times;font-weight:normal;font-style:normal;font-size:10px">20</text>
<text x="15.416" y="-234.61" transform="scale(1, -1)"
	style="font-family:Times;font-weight:normal;font-style:normal;font-size:10px">40</text>
<path d="M27.916,30.23L35.916,30.23" style="fill:none;stroke:#000000;stroke-width:0.5" />
<path d="M27.916,134.78L35.916,134.78" style="fill:none;stroke:#000000;stroke-width:0.5" />
<path d="M27.916,239.33L35.916,239.33" style="fill:none;stroke:#000000;stroke-width:0.5" />
<path d="M31.916,82.506L35.916,82.506" style="fill:none;stroke:#000000;stroke-width:0.5" />
<path d="M31.916,187.06L35.916,187.06" style="fill:none;stroke:#000000;stroke-width:0.5" />
<path d="M35.916,30.23L35.916,279.58" style="fill:none;stroke:#000000;stroke-width:0.5" />
<path d="M39.166,30.23L39.166,231.75L69.166,231.75L69.166,30.23Z" style="fill:#F15A60" />
<path d="M161.87,30.23L161.87,128.4L191.87,128.4L191.87,30.23Z" style="fill:#F15A60" />
<path d="M284.58,30.23L284.58,73.922L314.58,73.922L314.58,30.23Z" style="fill:#F15A60" />
<path d="M407.29,30.23L407.29,52.265L437.29,52.265L437.29,30.23Z" style="fill:#F15A60" />
<path d="M530,30.23L530,56.143L560,56.143L560,30.23Z" style="fill:#F15A60" />
<path d="M69.166,30.23L69.166,127.99L99.166,127.99L99.166,30.23Z" style="fill:#7AC36A" />
<path d="M191.87,30.23L191.87,247.33L221.87,247.33L221.87,30.23Z" style="fill:#7AC36A" />
<path d="M314.58,30.23L314.58,253.92L344.58,253.92L344.58,30.23Z" style="fill:#7AC36A" />
<path d="M437.29,30.23L437.29,279.58L467.29,279.58L467.29,30.23Z" style="fill:#7AC36A" />
<path d="M560,30.23L560,266.15L590,266.15L590,30.23Z" style="fill:#7AC36A" />
<path d="M570,267.81L570,279.58L590,279.58L590,267.81Z" style="fill:#F15A60" />
<text x="449.59" y="-268.03" transform="scale(1, -1)"
	style="font-family:Times;font-weight:normal;font-style:normal;font-size:12px">[BenchmarkRBMutex=]</text>
<path d="M570,256.03L570,267.81L590,267.81L590,256.03Z" style="fill:#7AC36A" />
<text x="446.93" y="-256.25" transform="scale(1, -1)"
	style="font-family:Times;font-weight:normal;font-style:normal;font-size:12px">[BenchmarkRWMutex=]</text>
</g>
</svg>
