<?xml version="1.0"?>
<!-- Generated by SVGo and Plotinum VG -->
<svg width="890pt" height="445pt" viewBox="0 0 890 445"
	xmlns="http://www.w3.org/2000/svg"
	xmlns:xlink="http://www.w3.org/1999/xlink">
<g transform="scale(1, -1) translate(0, -445)">
<path d="M0,0L890,0L890,445L0,445Z" style="fill:#FFFFFF" />
<text x="401.96" y="-433.45" transform="scale(1, -1)"
	style="font-family:Times;font-weight:normal;font-style:normal;font-size:12px">type=write-10000</text>
<text x="471.08" y="-3.8613" transform="scale(1, -1)"
	style="font-family:Times;font-weight:normal;font-style:normal;font-size:12px">cpus</text>
<text x="116.67" y="-15.602" transform="scale(1, -1)"
	style="font-family:Times;font-weight:normal;font-style:normal;font-size:10px">1</text>
<text x="298.12" y="-15.602" transform="scale(1, -1)"
	style="font-family:Times;font-weight:normal;font-style:normal;font-size:10px">4</text>
<text x="479.58" y="-15.602" transform="scale(1, -1)"
	style="font-family:Times;font-weight:normal;font-style:normal;font-size:10px">8</text>
<text x="658.54" y="-15.602" transform="scale(1, -1)"
	style="font-family:Times;font-weight:normal;font-style:normal;font-size:10px">16</text>
<text x="840" y="-15.602" transform="scale(1, -1)"
	style="font-family:Times;font-weight:normal;font-style:normal;font-size:10px">32</text>
<g transform="rotate(90)">
<text x="216.91" y="11.555" transform="scale(1, -1)"
	style="font-family:Times;font-weight:normal;font-style:normal;font-size:12px">ns/op</text>
</g>
<text x="25.416" y="-25.509" transform="scale(1, -1)"
	style="font-family:Times;font-weight:normal;font-style:normal;font-size:10px">0</text>
<text x="20.416" y="-198.39" transform="scale(1, -1)"
	style="font-family:Times;font-weight:normal;font-style:normal;font-size:10px">80</text>
<text x="15.416" y="-371.27" transform="scale(1, -1)"
	style="font-family:Times;font-weight:normal;font-style:normal;font-size:10px">160</text>
<path d="M32.916,30.23L40.916,30.23" style="fill:none;stroke:#000000;stroke-width:0.5" />
<path d="M32.916,203.11L40.916,203.11" style="fill:none;stroke:#000000;stroke-width:0.5" />
<path d="M32.916,375.99L40.916,375.99" style="fill:none;stroke:#000000;stroke-width:0.5" />
<path d="M36.916,116.67L40.916,116.67" style="fill:none;stroke:#000000;stroke-width:0.5" />
<path d="M36.916,289.55L40.916,289.55" style="fill:none;stroke:#000000;stroke-width:0.5" />
<path d="M40.916,30.23L40.916,429.58" style="fill:none;stroke:#000000;stroke-width:0.5" />
<path d="M44.166,30.23L44.166,130.2L74.166,130.2L74.166,30.23Z" style="fill:#F15A60" />
<path d="M225.62,30.23L225.62,77.837L255.62,77.837L255.62,30.23Z" style="fill:#F15A60" />
<path d="M407.08,30.23L407.08,113.21L437.08,113.21L437.08,30.23Z" style="fill:#F15A60" />
<path d="M588.54,30.23L588.54,92.122L618.54,92.122L618.54,30.23Z" style="fill:#F15A60" />
<path d="M770,30.23L770,69.798L800,69.798L800,30.23Z" style="fill:#F15A60" />
<path d="M74.166,30.23L74.166,429.58L104.17,429.58L104.17,30.23Z" style="fill:#7AC36A" />
<path d="M255.62,30.23L255.62,142.49L285.62,142.49L285.62,30.23Z" style="fill:#7AC36A" />
<path d="M437.08,30.23L437.08,156.07L467.08,156.07L467.08,30.23Z" style="fill:#7AC36A" />
<path d="M618.54,30.23L618.54,147.31L648.54,147.31L648.54,30.23Z" style="fill:#7AC36A" />
<path d="M800,30.23L800,113.6L830,113.6L830,30.23Z" style="fill:#7AC36A" />
<path d="M104.17,30.23L104.17,78.788L134.17,78.788L134.17,30.23Z" style="fill:#5A9BD4" />
<path d="M285.62,30.23L285.62,132.58L315.62,132.58L315.62,30.23Z" style="fill:#5A9BD4" />
<path d="M467.08,30.23L467.08,129.57L497.08,129.57L497.08,30.23Z" style="fill:#5A9BD4" />
<path d="M648.54,30.23L648.54,139.81L678.54,139.81L678.54,30.23Z" style="fill:#5A9BD4" />
<path d="M830,30.23L830,139.12L860,139.12L860,30.23Z" style="fill:#5A9BD4" />
<path d="M134.17,30.23L134.17,373.61L164.17,373.61L164.17,30.23Z" style="fill:#FAA75B" />
<path d="M315.62,30.23L315.62,195.46L345.62,195.46L345.62,30.23Z" style="fill:#FAA75B" />
<path d="M497.08,30.23L497.08,196.15L527.08,196.15L527.08,30.23Z" style="fill:#FAA75B" />
<path d="M678.54,30.23L678.54,192.93L708.54,192.93L708.54,30.23Z" style="fill:#FAA75B" />
<path d="M860,30.23L860,207.67L890,207.67L890,30.23Z" style="fill:#FAA75B" />
<path d="M870,417.81L870,429.58L890,429.58L890,417.81Z" style="fill:#F15A60" />
<text x="701.38" y="-418.03" transform="scale(1, -1)"
	style="font-family:Times;font-weight:normal;font-style:normal;font-size:12px">[BenchmarkRBMutex=,work=off]</text>
<path d="M870,406.03L870,417.81L890,417.81L890,406.03Z" style="fill:#7AC36A" />
<text x="703.16" y="-406.25" transform="scale(1, -1)"
	style="font-family:Times;font-weight:normal;font-style:normal;font-size:12px">[BenchmarkRBMutex=,work=on]</text>
<path d="M870,394.25L870,406.03L890,406.03L890,394.25Z" style="fill:#5A9BD4" />
<text x="698.72" y="-394.47" transform="scale(1, -1)"
	style="font-family:Times;font-weight:normal;font-style:normal;font-size:12px">[work=off,BenchmarkRWMutex=]</text>
<path d="M870,382.47L870,394.25L890,394.25L890,382.47Z" style="fill:#FAA75B" />
<text x="700.5" y="-382.7" transform="scale(1, -1)"
	style="font-family:Times;font-weight:normal;font-style:normal;font-size:12px">[work=on,BenchmarkRWMutex=]</text>
</g>
</svg>
